<?xml version="1.0" encoding="UTF-8" standalone="no"?>
<!-- Created with Inkscape (http://www.inkscape.org/) -->

<svg
   width="194.77499"
   height="213.64999"
   viewBox="0 0 51.534216 56.528227"
   version="1.1"
   id="svg249"
   sodipodi:docname="furina_scale_pattern.svg"
   inkscape:version="1.2.1 (9c6d41e410, 2022-07-14)"
   xmlns:inkscape="http://www.inkscape.org/namespaces/inkscape"
   xmlns:sodipodi="http://sodipodi.sourceforge.net/DTD/sodipodi-0.dtd"
   xmlns="http://www.w3.org/2000/svg"
   xmlns:svg="http://www.w3.org/2000/svg">
  <sodipodi:namedview
     id="namedview158"
     pagecolor="#425196"
     bordercolor="#000000"
     borderopacity="0.25"
     inkscape:showpageshadow="2"
     inkscape:pageopacity="1"
     inkscape:pagecheckerboard="0"
     inkscape:deskcolor="#d1d1d1"
     showgrid="false"
     inkscape:zoom="3.795928"
     inkscape:cx="91.150306"
     inkscape:cy="64.674567"
     inkscape:window-width="1920"
     inkscape:window-height="1001"
     inkscape:window-x="-9"
     inkscape:window-y="-9"
     inkscape:window-maximized="1"
     inkscape:current-layer="svg249" />
  <defs
     id="defs246" />
  <g
     id="layer2">
    <path
       style="display:inline;fill:#4869ac;fill-opacity:1;stroke-width:0.497417;stroke-linecap:round;stroke-linejoin:round"
       d="m 33.751721,10.695536 c 0.148623,-0.03716 -1.62634,5.382244 -3.929855,7.649774 -2.744787,2.701908 -4.07044,2.805714 -4.25104,4.2664 -0.146416,1.184212 0.23933,3.548091 0.858638,5.187844 0.727208,1.925443 1.780973,3.70784 3.270536,5.237276 0.647233,0.664558 1.967372,1.387682 2.673885,1.988838 0.633061,0.538658 1.377836,1.61317 1.377836,1.61317 m 0,-25.943302 c -0.148623,-0.03716 1.62634,5.382244 3.929855,7.649774 2.744787,2.701908 4.07044,2.805714 4.25104,4.2664 0.146416,1.184212 -0.23933,3.548091 -0.858638,5.187844 -0.727208,1.925443 -1.780973,3.70784 -3.270536,5.237276 -0.647233,0.664558 -1.967372,1.387682 -2.673885,1.988838 -0.633061,0.538658 -1.377836,1.61317 -1.377836,1.61317"
       id="path2650-4"
       class="UnoptimicedTransforms"
       transform="translate(-25.539787,-10.695346)" />
    <path
       style="display:inline;opacity:1;fill:#4869ac;fill-opacity:1;stroke-width:0.497417;stroke-linecap:round;stroke-linejoin:round"
       d="m 33.751721,10.695536 c 0.148623,-0.03716 -1.62634,5.382244 -3.929855,7.649774 -2.744787,2.701908 -4.07044,2.805714 -4.25104,4.2664 -0.146416,1.184212 0.23933,3.548091 0.858638,5.187844 0.727208,1.925443 1.780973,3.70784 3.270536,5.237276 0.647233,0.664558 1.967372,1.387682 2.673885,1.988838 0.633061,0.538658 1.377836,1.61317 1.377836,1.61317 m 0,-25.943302 c -0.148623,-0.03716 1.62634,5.382244 3.929855,7.649774 2.744787,2.701908 4.07044,2.805714 4.25104,4.2664 0.146416,1.184212 -0.23933,3.548091 -0.858638,5.187844 -0.727208,1.925443 -1.780973,3.70784 -3.270536,5.237276 -0.647233,0.664558 -1.967372,1.387682 -2.673885,1.988838 -0.633061,0.538658 -1.377836,1.61317 -1.377836,1.61317"
       id="path2650"
       class="UnoptimicedTransforms"
       transform="translate(-8.3617257,-10.695346)" />
    <path
       style="display:inline;fill:#4869ac;fill-opacity:1;stroke-width:0.497417;stroke-linecap:round;stroke-linejoin:round"
       d="m 33.751721,10.695536 c 0.148623,-0.03716 -1.62634,5.382244 -3.929855,7.649774 -2.744787,2.701908 -4.07044,2.805714 -4.25104,4.2664 -0.146416,1.184212 0.23933,3.548091 0.858638,5.187844 0.727208,1.925443 1.780973,3.70784 3.270536,5.237276 0.647233,0.664558 1.967372,1.387682 2.673885,1.988838 0.633061,0.538658 1.377836,1.61317 1.377836,1.61317 m 0,-25.943302 c -0.148623,-0.03716 1.62634,5.382244 3.929855,7.649774 2.744787,2.701908 4.07044,2.805714 4.25104,4.2664 0.146416,1.184212 -0.23933,3.548091 -0.858638,5.187844 -0.727208,1.925443 -1.780973,3.70784 -3.270536,5.237276 -0.647233,0.664558 -1.967372,1.387682 -2.673885,1.988838 -0.633061,0.538658 -1.377836,1.61317 -1.377836,1.61317"
       id="path2650-4-4"
       class="UnoptimicedTransforms"
       transform="translate(8.8163353,-10.695346)" />
  </g>
  <g
     id="layer3">
    <path
       style="display:inline;fill:#344582;fill-opacity:1;stroke-width:0.497417;stroke-linecap:round;stroke-linejoin:round"
       d="m 33.751721,10.695536 c 0.148623,-0.03716 -1.62634,5.382244 -3.929855,7.649774 -2.744787,2.701908 -4.07044,2.805714 -4.25104,4.2664 -0.146416,1.184212 0.23933,3.548091 0.858638,5.187844 0.727208,1.925443 1.780973,3.70784 3.270536,5.237276 0.647233,0.664558 1.967372,1.387682 2.673885,1.988838 0.633061,0.538658 1.377836,1.61317 1.377836,1.61317 m 0,-25.943302 c -0.148623,-0.03716 1.62634,5.382244 3.929855,7.649774 2.744787,2.701908 4.07044,2.805714 4.25104,4.2664 0.146416,1.184212 -0.23933,3.548091 -0.858638,5.187844 -0.727208,1.925443 -1.780973,3.70784 -3.270536,5.237276 -0.647233,0.664558 -1.967372,1.387682 -2.673885,1.988838 -0.633061,0.538658 -1.377836,1.61317 -1.377836,1.61317"
       id="path2650-7"
       class="UnoptimicedTransforms"
       transform="translate(-25.539787,17.568768)" />
    <path
       style="display:inline;fill:#344582;fill-opacity:1;stroke-width:0.497417;stroke-linecap:round;stroke-linejoin:round"
       d="m 33.751721,10.695536 c 0.148623,-0.03716 -1.62634,5.382244 -3.929855,7.649774 -2.744787,2.701908 -4.07044,2.805714 -4.25104,4.2664 -0.146416,1.184212 0.23933,3.548091 0.858638,5.187844 0.727208,1.925443 1.780973,3.70784 3.270536,5.237276 0.647233,0.664558 1.967372,1.387682 2.673885,1.988838 0.633061,0.538658 1.377836,1.61317 1.377836,1.61317 m 0,-25.943302 c -0.148623,-0.03716 1.62634,5.382244 3.929855,7.649774 2.744787,2.701908 4.07044,2.805714 4.25104,4.2664 0.146416,1.184212 -0.23933,3.548091 -0.858638,5.187844 -0.727208,1.925443 -1.780973,3.70784 -3.270536,5.237276 -0.647233,0.664558 -1.967372,1.387682 -2.673885,1.988838 -0.633061,0.538658 -1.377836,1.61317 -1.377836,1.61317"
       id="path2650-7-9"
       class="UnoptimicedTransforms"
       transform="translate(-8.3617141,17.568768)" />
    <path
       style="display:inline;fill:#344582;fill-opacity:1;stroke-width:0.497417;stroke-linecap:round;stroke-linejoin:round"
       d="m 33.751721,10.695536 c 0.148623,-0.03716 -1.62634,5.382244 -3.929855,7.649774 -2.744787,2.701908 -4.07044,2.805714 -4.25104,4.2664 -0.146416,1.184212 0.23933,3.548091 0.858638,5.187844 0.727208,1.925443 1.780973,3.70784 3.270536,5.237276 0.647233,0.664558 1.967372,1.387682 2.673885,1.988838 0.633061,0.538658 1.377836,1.61317 1.377836,1.61317 m 0,-25.943302 c -0.148623,-0.03716 1.62634,5.382244 3.929855,7.649774 2.744787,2.701908 4.07044,2.805714 4.25104,4.2664 0.146416,1.184212 -0.23933,3.548091 -0.858638,5.187844 -0.727208,1.925443 -1.780973,3.70784 -3.270536,5.237276 -0.647233,0.664558 -1.967372,1.387682 -2.673885,1.988838 -0.633061,0.538658 -1.377836,1.61317 -1.377836,1.61317"
       id="path2650-7-9-9"
       class="UnoptimicedTransforms"
       transform="translate(8.8163585,17.568768)" />
  </g>
</svg>
