<?xml version="1.0" encoding="UTF-8" standalone="no"?>
<!-- Created with Inkscape (http://www.inkscape.org/) -->

<svg
   version="1.1"
   id="svg1856"
   width="244.28783"
   height="244.28772"
   viewBox="0 0 244.28782 244.28773"
   sodipodi:docname="windblumeRdeo.svg"
   inkscape:version="1.1 (c68e22c387, 2021-05-23)"
   xmlns:inkscape="http://www.inkscape.org/namespaces/inkscape"
   xmlns:sodipodi="http://sodipodi.sourceforge.net/DTD/sodipodi-0.dtd"
   xmlns:xlink="http://www.w3.org/1999/xlink"
   xmlns="http://www.w3.org/2000/svg"
   xmlns:svg="http://www.w3.org/2000/svg">
  <defs
     id="defs1860">
    <inkscape:path-effect
       effect="circle_3pts"
       id="path-effect18152"
       is_visible="true"
       lpeversion="1" />
    <inkscape:path-effect
       origin="111,114.36354"
       starting_point="118.36938,114.36354"
       effect="copy_rotate"
       id="path-effect17291"
       is_visible="true"
       lpeversion="1"
       method="normal"
       num_copies="5"
       starting_angle="0"
       rotation_angle="72"
       gap="-0.01"
       copies_to_360="true"
       mirror_copies="false"
       split_items="false" />
    <linearGradient
       inkscape:collect="always"
       id="linearGradient14504">
      <stop
         style="stop-color:#9cdce5;stop-opacity:1"
         offset="0"
         id="stop14500" />
      <stop
         style="stop-color:#ccf1dc;stop-opacity:1"
         offset="1"
         id="stop14502" />
    </linearGradient>
    <inkscape:path-effect
       effect="copy_rotate"
       starting_point="131.3446,117.42763"
       origin="113.03906,117.42763"
       id="path-effect10715"
       is_visible="true"
       lpeversion="1"
       method="normal"
       num_copies="5"
       starting_angle="4.9567459e-06"
       rotation_angle="72"
       gap="-0.01"
       copies_to_360="false"
       mirror_copies="false"
       split_items="false" />
    <linearGradient
       inkscape:collect="always"
       id="linearGradient23060">
      <stop
         style="stop-color:#ebf7e9;stop-opacity:1"
         offset="0"
         id="stop23056" />
      <stop
         style="stop-color:#feedcf;stop-opacity:1"
         offset="1"
         id="stop23058" />
    </linearGradient>
    <inkscape:path-effect
       effect="copy_rotate"
       starting_point="157.14881,114.61077"
       id="path-effect22933"
       is_visible="true"
       lpeversion="1"
       method="normal"
       num_copies="5"
       starting_angle="0"
       rotation_angle="72"
       gap="-0.01"
       origin="110.46513,114.61077"
       copies_to_360="true"
       mirror_copies="false"
       split_items="false" />
    <linearGradient
       inkscape:collect="always"
       id="linearGradient22225">
      <stop
         style="stop-color:#8de0c3;stop-opacity:1"
         offset="0"
         id="stop22221" />
      <stop
         style="stop-color:#63e2f3;stop-opacity:1"
         offset="1"
         id="stop22223" />
    </linearGradient>
    <inkscape:path-effect
       effect="copy_rotate"
       starting_point="151.45307,114.40044"
       id="path-effect22136"
       is_visible="true"
       lpeversion="1"
       method="normal"
       num_copies="5"
       starting_angle="0"
       rotation_angle="72"
       gap="0"
       origin="110.69585,114.40044"
       copies_to_360="true"
       mirror_copies="false"
       split_items="false" />
    <inkscape:path-effect
       effect="copy_rotate"
       starting_point="118.48292,114.83284"
       id="path-effect19786"
       is_visible="true"
       lpeversion="1"
       method="fuse_paths"
       num_copies="5"
       starting_angle="0"
       rotation_angle="72"
       gap="-0.01"
       origin="111.15363,114.83284"
       copies_to_360="false"
       mirror_copies="false"
       split_items="false" />
    <inkscape:path-effect
       effect="copy_rotate"
       starting_point="120.23112,114.93139"
       origin="112.90183,114.93139"
       id="path-effect19546"
       is_visible="true"
       lpeversion="1"
       method="normal"
       num_copies="5"
       starting_angle="0"
       rotation_angle="72"
       gap="-0.01"
       copies_to_360="true"
       mirror_copies="false"
       split_items="false" />
    <inkscape:path-effect
       effect="skeletal"
       id="path-effect17645"
       is_visible="true"
       lpeversion="1"
       pattern="M 0,18.867924 C 0,8.4528297 8.4528297,0 18.867924,0 c 10.415093,0 18.867923,8.4528297 18.867923,18.867924 0,10.415093 -8.45283,18.867923 -18.867923,18.867923 C 8.4528297,37.735847 0,29.283017 0,18.867924 Z"
       copytype="single_stretched"
       prop_scale="0.1"
       scale_y_rel="false"
       spacing="0"
       normal_offset="0"
       tang_offset="0"
       prop_units="false"
       vertical_pattern="false"
       hide_knot="false"
       fuse_tolerance="0" />
    <inkscape:path-effect
       effect="copy_rotate"
       starting_point="923.98075,1000.2982"
       origin="875.65729,1000.2982"
       id="path-effect3157"
       is_visible="true"
       lpeversion="1"
       method="normal"
       num_copies="5"
       starting_angle="0"
       rotation_angle="72"
       gap="-0.01"
       copies_to_360="true"
       mirror_copies="false"
       split_items="false" />
    <inkscape:path-effect
       effect="skeletal"
       id="path-effect3044"
       is_visible="true"
       lpeversion="1"
       pattern="M 0,18.867924 C 0,8.4528297 8.4528297,0 18.867924,0 c 10.415093,0 18.867923,8.4528297 18.867923,18.867924 0,10.415093 -8.45283,18.867923 -18.867923,18.867923 C 8.4528297,37.735847 0,29.283017 0,18.867924 Z"
       copytype="single_stretched"
       prop_scale="0.1"
       scale_y_rel="false"
       spacing="0"
       normal_offset="0"
       tang_offset="0"
       prop_units="false"
       vertical_pattern="false"
       hide_knot="false"
       fuse_tolerance="0" />
    <inkscape:path-effect
       effect="skeletal"
       id="path-effect2176"
       is_visible="true"
       lpeversion="1"
       pattern="M 0,18.867924 C 0,8.4528297 8.4528297,0 18.867924,0 c 10.415093,0 18.867923,8.4528297 18.867923,18.867924 0,10.415093 -8.45283,18.867923 -18.867923,18.867923 C 8.4528297,37.735847 0,29.283017 0,18.867924 Z"
       copytype="single_stretched"
       prop_scale="0.1"
       scale_y_rel="false"
       spacing="0"
       normal_offset="0"
       tang_offset="0"
       prop_units="false"
       vertical_pattern="false"
       hide_knot="false"
       fuse_tolerance="0" />
    <radialGradient
       inkscape:collect="always"
       xlink:href="#linearGradient22225"
       id="radialGradient22227"
       cx="110.7"
       cy="114.4"
       fx="109.7736"
       fy="119.66564"
       r="112.95799"
       gradientTransform="matrix(1,0,0,1.0190387,0,-2.2495486)"
       gradientUnits="userSpaceOnUse" />
    <radialGradient
       inkscape:collect="always"
       xlink:href="#linearGradient23060"
       id="radialGradient23062"
       cx="110.46806"
       cy="114.6898"
       fx="110.46806"
       fy="114.6898"
       r="102.85489"
       gradientTransform="matrix(0.99999985,0,0,1.0313065,1.6388223e-5,-3.6529586)"
       gradientUnits="userSpaceOnUse" />
    <radialGradient
       inkscape:collect="always"
       xlink:href="#linearGradient14504"
       id="radialGradient14506"
       cx="114.71705"
       cy="119.60235"
       fx="114.71705"
       fy="119.60235"
       r="38.382862"
       gradientTransform="matrix(1,0,0,0.99263408,0,0.88098087)"
       gradientUnits="userSpaceOnUse" />
  </defs>
  <sodipodi:namedview
     id="namedview1858"
     pagecolor="#ffffff"
     bordercolor="#666666"
     borderopacity="1.0"
     inkscape:pageshadow="2"
     inkscape:pageopacity="0.0"
     inkscape:pagecheckerboard="0"
     showgrid="false"
     inkscape:zoom="2.7506929"
     inkscape:cx="124.87763"
     inkscape:cy="129.96725"
     inkscape:window-width="1920"
     inkscape:window-height="1001"
     inkscape:window-x="-9"
     inkscape:window-y="-9"
     inkscape:window-maximized="1"
     inkscape:current-layer="layer8" />
  <g
     inkscape:groupmode="layer"
     id="layer5"
     inkscape:label="white petal"
     style="display:inline"
     sodipodi:insensitive="true"
     transform="translate(11.25427,7.537683)">
    <path
       style="fill:url(#radialGradient23062);fill-opacity:1;stroke:none;stroke-width:1px;stroke-linecap:butt;stroke-linejoin:miter;stroke-opacity:1"
       d="M 113.51685,111.15381 C 122.10374,93.074713 116.36008,81.155931 101.93678,68.133925 74.749175,62.178253 41.961501,61.922762 24.561324,41.376054 27.924226,68.510556 61.235272,82.240062 79.979848,101.42899 Z m -5.39645,-0.51366 C 93.579651,96.886787 80.469327,98.666226 63.627619,108.35958 49.562006,132.37612 39.187071,163.4801 14.26904,173.67937 41.114679,178.86609 64.465894,151.42805 88.508042,139.5306 Z m -2.15611,4.9736 c -17.57357,9.57905 -19.932536,22.59759 -15.917984,41.61042 18.494574,20.79871 44.870194,40.27752 46.870174,67.12772 13.22862,-23.92894 -5.65058,-54.61608 -9.53629,-81.15804 z m 4.0639,3.58752 c 3.67968,19.67354 15.33209,25.94 34.65492,27.99722 25.49589,-11.16223 52.17185,-30.22765 78.32594,-23.83258 -18.6699,-19.97561 -53.6891,-11.50327 -80.13275,-16.00966 z m 4.66774,-2.7564 c 19.84774,2.57987 29.40828,-6.56578 37.3359,-24.307178 -2.73725,-27.697353 -12.62621,-58.959235 1.53792,-81.857068 -24.76725,11.583332 -27.53111,47.50667 -39.98847,71.263526 z"
       id="path22321"
       sodipodi:nodetypes="ccccc"
       inkscape:original-d="M 113.51685,111.15381 C 122.10374,93.074713 116.36008,81.155931 101.93678,68.133925 74.749175,62.178253 41.961501,61.922762 24.561324,41.376054 27.924226,68.510556 61.235272,82.240062 79.979848,101.42899 Z"
       inkscape:path-effect="#path-effect22933" />
  </g>
  <g
     inkscape:groupmode="layer"
     id="layer6"
     inkscape:label="inner petal gradient"
     style="display:inline"
     sodipodi:insensitive="true"
     transform="translate(11.25427,7.537683)">
    <path
       style="fill:url(#radialGradient14506);fill-opacity:1;stroke:none;stroke-width:1px;stroke-linecap:butt;stroke-linejoin:miter;stroke-opacity:1"
       d="m 106.66822,117.35206 c 5.79022,2.90706 14.70245,-1.85092 14.85948,-5.32809 0.36274,-8.0327 -6.79886,-19.829713 -10.96014,-23.321939 -4.27109,-3.584376 -13.826466,-5.563966 -25.80185,-0.515072 8.104177,3.689952 9.376091,6.711291 9.498948,11.853301 0.284272,11.89775 12.774072,18.84651 12.403562,17.3118 z m 4.33027,6.11125 c 4.55405,-4.6085 2.78298,-14.55483 -0.47548,-15.77868 -7.52746,-2.82723 -20.960146,0.33838 -25.567356,3.21684 -4.728784,2.95441 -9.564259,11.43039 -8.463073,24.37985 6.013681,-6.56727 9.280188,-6.84329 14.208495,-5.37117 11.403274,3.40625 21.871504,-6.32497 20.297414,-6.44684 z m 7.15027,-2.22985 c -2.97566,-5.75527 -12.98248,-7.14446 -15.15335,-4.42367 -5.014965,6.28538 -6.155219,20.03884 -4.841351,25.31005 1.348541,5.41031 7.915431,12.62834 20.571381,15.58265 -4.38752,-7.74875 -3.64062,-10.94068 -0.71761,-15.17286 6.76334,-9.79258 0.74326,-22.75556 0.14093,-21.29617 z m 0.0888,-7.48937 c -6.39312,1.05154 -10.80659,10.1393 -8.8898,13.04469 4.42804,6.71181 17.156,12.04631 22.57523,12.42564 5.56223,0.38934 14.45626,-3.62565 21.17688,-14.74924 -8.72531,1.77828 -11.53021,0.0816 -14.652,-4.00618 -7.2233,-9.4584 -21.41214,-7.73874 -20.21031,-6.71491 z m -7.09537,-2.39884 c -0.9755,6.40516 6.30364,13.4109 9.65915,12.48574 7.75165,-2.13726 16.75822,-12.59382 18.79361,-17.63059 2.08911,-5.16968 1.01904,-14.869113 -7.48334,-24.698185 -1.00503,8.847788 -3.48545,10.991095 -8.33783,12.696907 -11.22758,3.946966 -13.97669,17.972758 -12.63159,17.146128 z"
       id="path9402"
       sodipodi:nodetypes="csscsc"
       inkscape:original-d="m 106.66822,117.35206 c 5.79022,2.90706 14.70245,-1.85092 14.85948,-5.32809 0.36274,-8.0327 -6.79886,-19.829713 -10.96014,-23.321939 -4.27109,-3.584376 -13.826466,-5.563966 -25.80185,-0.515072 8.104177,3.689952 9.376091,6.711291 9.498948,11.853301 0.284272,11.89775 12.774072,18.84651 12.403562,17.3118 z"
       transform="rotate(3.0083003,182.03926,77.127853)"
       inkscape:path-effect="#path-effect10715" />
  </g>
  <g
     inkscape:groupmode="layer"
     id="layer4"
     inkscape:label="underpetal gradient"
     style="display:inline"
     sodipodi:insensitive="true"
     transform="translate(11.25427,7.537683)">
    <path
       style="fill:url(#radialGradient22227);fill-opacity:1;stroke:none;stroke-width:1px;stroke-linecap:butt;stroke-linejoin:miter;stroke-opacity:1"
       d="m 20.84381,34.03638 c 3.538311,7.140649 6.341293,11.868848 8.76123,20.81559 11.526831,17.155019 27.215232,27.938566 54.282914,45.84993 -6.967941,0.38062 -13.935883,3.81244 -20.903824,7.2709 C 42.053829,94.005799 18.830274,64.452487 20.84381,34.03638 Z M 6.4992842,175.02095 c 7.8845588,-1.15855 13.2475128,-2.36325 22.5041718,-1.90005 19.877379,-5.66148 34.981124,-17.24973 60.380217,-37.45771 -1.791221,6.74452 -0.680578,14.43192 0.4554,22.12755 -19.751226,15.58985 -55.034569,28.54429 -83.3397888,17.23021 z M 136.15088,232.23003 c 1.33461,-7.85667 1.84612,-13.32941 5.14711,-21.98988 0.75806,-20.65401 -5.59571,-38.59949 -16.96589,-69.00007 5.86091,3.78772 13.51526,5.10698 21.18528,6.40468 8.72337,23.60206 10.14062,61.16165 -9.3665,84.58527 z m 94.47361,-105.62741 c -7.05972,-3.69714 -12.10654,-5.87478 -19.32308,-11.69044 -19.40887,-7.1034 -38.43946,-6.60607 -70.86571,-5.18668 5.41346,-4.40358 9.03347,-11.275635 12.63782,-18.169241 25.14257,-1.002981 61.30182,9.255691 77.55097,35.046361 z M 159.36081,4.1122063 c -5.69777,5.5717156 -9.32838,9.6986037 -17.08944,14.7647957 -12.7534,16.26386 -18.16118,34.516716 -26.83153,65.794527 -2.5152,-6.509288 -7.93227,-12.075704 -13.37467,-17.633886 6.81559,-24.22194 27.74598,-55.441329 57.29564,-62.9254367 z"
       id="path20878"
       sodipodi:nodetypes="ccccc"
       inkscape:original-d="m 20.84381,34.03638 c 3.538311,7.140649 6.341293,11.868848 8.76123,20.81559 11.526831,17.155019 27.215232,27.938566 54.282914,45.84993 -6.967941,0.38062 -13.935883,3.81244 -20.903824,7.2709 C 42.053829,94.005799 18.830274,64.452487 20.84381,34.03638 Z"
       inkscape:path-effect="#path-effect22136" />
  </g>
  <g
     inkscape:groupmode="layer"
     id="layer1"
     inkscape:label="blue lines"
     transform="translate(-753.51337,-878.15433)"
     style="display:inline"
     sodipodi:insensitive="true">
    <g
       id="g3155"
       style="fill:#5eadc0;fill-opacity:1;stroke:#5eadc0;stroke-opacity:1"
       inkscape:path-effect="#path-effect3157">
      <path
         style="fill:#5eadc0;fill-opacity:1;stroke:#5eadc0;stroke-width:1px;stroke-linecap:butt;stroke-linejoin:miter;stroke-opacity:1"
         d="m 878.29498,993.38929 c -0.32205,-0.0817 1.26988,-5.18548 1.25356,-14.10357 -0.008,-2.96882 -0.28401,-6.62933 -1.48788,-10.14252 -0.82784,-2.42724 -2.15477,-4.90841 -4.08265,-7.02903 -1.68166,-1.86341 -3.81433,-3.45173 -6.28526,-4.76765 -5.13366,-2.74536 -10.96587,-4.03552 -17.80831,-5.15137 h -1e-5 c -6.68144,-1.06928 -13.88747,-1.72823 -21.44201,-2.8301 -8.13666,-1.16845 -17.01673,-3.17937 -24.97383,-7.67237 -1.45559,-0.91196 -2.85438,-1.92349 -4.19258,-3.02675 -6.17276,-5.08905 -10.72086,-11.84478 -13.66456,-18.93753 -1.40326,16.88816 5.92777,32.45738 13.78062,43.55078 14.19058,21.2146 29.28157,30.14299 28.92583,30.62002 -0.35573,0.47702 -16.07019,-7.45594 -31.34889,-28.94802 -7.66738,-11.39839 -14.27327,-27.83295 -11.53162,-46.24718 3.66417,6.46508 8.83576,12.57551 15.44456,17.06346 1.43403,0.97383 2.91932,1.85953 4.45217,2.64947 7.27371,4.18088 15.7311,6.10567 23.64943,7.35535 7.41168,1.15232 14.64919,1.91326 21.45823,3.12146 l 10e-6,10e-6 c 6.94036,1.21093 13.1304,2.78175 18.65986,5.88351 2.69405,1.51636 5.03287,3.38837 6.8927,5.57284 2.12606,2.51303 3.51076,5.34867 4.31436,8.08246 1.15185,3.9396 1.25571,7.81509 1.07054,10.90667 -0.54757,9.25625 -2.76222,14.13172 -3.08427,14.05006 z m -8.39336,2.26535 c -0.17719,0.28105 -4.53927,-2.81013 -13.02592,-5.55045 -2.82594,-0.90996 -6.39264,-1.77847 -10.1059,-1.71916 -2.56425,0.0373 -5.33403,0.53253 -7.9466,1.71074 -2.29187,1.02353 -4.46149,2.56101 -6.47657,4.50436 -4.19737,4.03403 -7.22664,9.18207 -10.40231,15.34487 v 0 c -3.08162,6.024 -5.93511,12.6737 -9.31753,19.518 -3.62563,7.3774 -8.28222,15.2014 -15.01419,21.3806 -1.31714,1.1026 -2.7114,2.1203 -4.17419,3.0521 -6.74747,4.298 -14.57799,6.5359 -22.23325,7.1437 15.62796,6.5534 32.70059,4.3923 45.6777,0.3518 24.56141,-6.9403 37.71619,-18.5337 38.05994,-18.048 0.34375,0.4858 -12.05698,12.9797 -37.21854,20.8692 -13.20986,3.7698 -30.8814,4.9738 -47.54715,-3.324 7.28094,-1.487 14.69042,-4.5172 21.00095,-9.4157 1.36931,-1.0629 2.67063,-2.2018 3.89559,-3.4156 6.22395,-5.6257 10.66801,-13.0744 14.30343,-20.219 3.38625,-6.6928 6.34647,-13.341 9.59964,-19.4434 h 10e-6 c 3.29636,-6.2265 6.70313,-11.62813 11.36177,-15.92846 2.27465,-2.09361 4.77777,-3.73948 7.43004,-4.83324 3.04703,-1.24543 6.17178,-1.6861 9.02009,-1.60559 4.10273,0.12193 7.82063,1.22075 10.70368,2.35221 8.634,3.38111 12.58649,6.99397 12.40931,7.27502 z m -0.43922,8.68256 c 0.21254,0.2554 -4.0753,3.4487 -9.30402,10.6732 -1.73869,2.4065 -3.66686,5.5302 -4.75791,9.0801 -0.75695,2.4502 -1.14185,5.2375 -0.82863,8.0863 0.26521,2.496 1.05699,5.0345 2.28253,7.5515 2.53954,5.2385 6.49956,9.7104 11.37933,14.635 v 0 c 4.7769,4.7923 10.21938,9.561 15.68347,14.8929 5.8959,5.7279 11.89803,12.5743 15.69455,20.8863 0.64156,1.5934 1.17864,3.2339 1.61279,4.913 2.00259,7.7454 1.71117,15.8842 -0.0763,23.3527 11.06187,-12.838 14.2823,-29.7429 14.44974,-43.3334 0.98921,-25.504 -5.97168,-41.5975 -5.40349,-41.7743 0.56819,-0.1768 8.61857,15.4778 8.34657,41.8458 -0.49677,13.7283 -4.81248,30.907 -17.85414,44.1929 0.83571,-7.3841 0.24342,-15.3673 -2.46526,-22.8827 -0.58774,-1.6307 -1.26878,-3.2203 -2.04456,-4.7604 -3.42709,-7.6578 -9.1379,-14.1861 -14.80942,-19.8514 -5.31886,-5.2887 -10.72686,-10.1584 -15.52532,-15.1381 h -10e-6 c -4.9031,-5.0591 -8.98764,-9.9684 -11.6379,-15.7279 -1.28824,-2.8103 -2.08004,-5.6995 -2.30068,-8.5599 -0.24289,-3.2828 0.30361,-6.3908 1.26036,-9.0748 1.38377,-3.8642 3.57771,-7.0606 5.5447,-9.4529 5.88368,-7.1666 10.5411,-9.8092 10.75364,-9.5539 z m 8.12191,3.1008 c 0.30854,-0.1232 2.02059,4.9416 7.27572,12.1469 1.75137,2.3972 4.12639,5.1963 7.16534,7.3309 2.09644,1.4771 4.62834,2.7044 7.43449,3.2869 2.45578,0.519 5.11474,0.5505 7.88724,0.1627 5.7669,-0.7964 11.2436,-3.1808 17.43513,-6.2999 h 10e-6 c 6.0339,-3.0622 12.25102,-6.7647 19.01044,-10.3137 7.26949,-3.8373 15.63561,-7.43 24.71396,-8.4722 1.71363,-0.1178 3.43984,-0.1216 5.17094,-0.016 7.98514,0.4888 15.63555,3.281 22.18607,7.2889 -8.79135,-14.4876 -23.87364,-22.77429 -36.74726,-27.13325 -23.95006,-8.82196 -41.40689,-7.17492 -41.39949,-7.76994 0.007,-0.59502 17.38355,-3.41384 42.377,4.99302 12.90285,4.71472 27.90712,14.12771 36.51269,30.63667 -6.76445,-3.0766 -14.53998,-4.9803 -22.52457,-4.7266 -1.73255,0.055 -3.45477,0.2116 -5.1592,0.4735 -8.342,0.893 -16.31554,4.3069 -23.45615,7.9502 -6.67349,3.4242 -12.97603,7.0627 -19.19482,10.0875 h -10e-6 c -6.32664,3.0998 -12.2578,5.4673 -18.55439,6.2081 -3.07082,0.3568 -6.06331,0.217 -8.85194,-0.4571 -3.19714,-0.7834 -5.98414,-2.2636 -8.24114,-4.0029 -3.24751,-2.5102 -5.60949,-5.5845 -7.27687,-8.1945 -4.99769,-7.8103 -6.07173,-13.0564 -5.76319,-13.1796 z m 5.45883,-6.7662 c -0.0218,-0.3315 5.3241,-0.3946 13.80067,-3.16602 2.82109,-0.92487 6.21711,-2.31868 9.18633,-4.54926 2.05262,-1.53739 4.00232,-3.56609 5.42339,-6.05492 1.25255,-2.17518 2.1041,-4.69429 2.59206,-7.45093 1.0246,-5.73076 0.44937,-11.6762 -0.60383,-18.52857 v 0 c -1.04774,-6.68486 -2.64783,-13.74183 -3.93437,-21.26712 -1.4031,-8.0995 -2.23469,-17.16635 -0.42048,-26.12242 0.41753,-1.66616 0.9473,-3.30906 1.58304,-4.92269 2.93249,-7.44325 7.95212,-13.85639 13.78808,-18.84779 -16.49522,3.88414 -29.03702,15.66753 -37.16081,26.56408 -15.79115,20.05172 -19.61918,37.16312 -20.18279,36.9722 -0.56361,-0.19091 2.12506,-17.58767 17.84386,-38.75999 8.47116,-10.81441 22.06003,-22.17555 40.42022,-25.25838 -5.01637,5.48264 -9.22963,12.28934 -11.45569,19.96154 -0.48303,1.66477 -0.86639,3.35106 -1.144,5.053 -1.72855,8.20967 -0.94566,16.84791 0.31272,24.76487 1.19442,7.40501 2.70723,14.52344 3.66227,21.37257 v 10e-6 c 0.99303,6.97488 1.41191,13.34737 0.17066,19.56469 -0.60964,3.03077 -1.66729,5.83361 -3.17012,8.27745 -1.73305,2.79857 -4.00201,4.99176 -6.35366,6.60082 -3.39085,2.31288 -7.04457,3.60924 -10.04206,4.38849 -8.97242,2.33957 -14.29363,1.73987 -14.31549,1.40837 z"
         id="path2174"
         inkscape:original-d="m 878.29498,993.38929 c 10.85133,-42.793 -20.71808,-41.4732 -49.58199,-45.82062 -17.16454,-2.58529 -33.2703,-8.00085 -43.18857,-28.35247 -1.96805,16.76194 4.02903,32.39667 12.65612,44.89898 8.00607,11.60234 18.74678,21.28973 30.13734,29.784"
         sodipodi:nodetypes="cscsc"
         inkscape:path-effect="#path-effect2176" />
      <path
         style="fill:#5eadc0;fill-opacity:1;stroke:#5eadc0;stroke-width:1px;stroke-linecap:butt;stroke-linejoin:miter;stroke-opacity:1"
         d="m 794.37268,940.54399 c 0.44577,-0.26922 3.12518,3.5958 8.10505,9.18215 5.29222,5.93675 12.09297,12.46845 21.70368,19.56515 0.2202,0.1626 0.44026,0.32429 0.66014,0.48509 9.33846,6.81254 17.69169,11.53574 24.50816,15.03886 6.55623,3.36938 10.76587,5.2171 10.59507,5.70245 -0.17079,0.48535 -4.72326,-0.48929 -11.69318,-3.29844 -7.14867,-2.88118 -16.12723,-7.48007 -25.63146,-14.39331 -0.22612,-0.16408 -0.45231,-0.32933 -0.67852,-0.49576 -9.76428,-7.18362 -16.74587,-14.46838 -21.5307,-20.92486 -4.58173,-6.18244 -6.48401,-10.59211 -6.03824,-10.86133 z m -0.66335,118.59541 c -0.11829,-0.5071 4.38554,-1.8611 11.23734,-4.8709 7.28158,-3.1987 15.59514,-7.6482 25.31437,-14.5955 0.22269,-0.1592 0.44447,-0.3185 0.66535,-0.4779 9.36485,-6.7762 16.43817,-13.2611 21.87624,-18.6614 5.23046,-5.1942 8.2886,-8.6268 8.69741,-8.3144 0.40882,0.3125 -1.92491,4.3409 -6.75039,10.1016 -4.94923,5.9085 -12.09756,13.0265 -21.60941,19.9292 -0.22593,0.1644 -0.45299,0.3284 -0.68117,0.4921 -9.84936,7.0666 -18.93501,11.4553 -26.55408,14.0108 -7.29568,2.447 -12.07737,2.8935 -12.19566,2.3864 z m 112.58595,37.2789 c -0.51888,-0.044 -0.41477,-4.746 -1.15999,-12.1926 -0.79197,-7.9136 -2.45465,-17.1952 -6.05855,-28.5856 -0.0826,-0.261 -0.16556,-0.5212 -0.24893,-0.7805 -3.55066,-11.0005 -7.53234,-19.7315 -10.9879,-26.5722 -3.32362,-6.5796 -5.64323,-10.5488 -5.21977,-10.841 0.42345,-0.2923 3.5336,3.1721 7.52121,9.5415 4.08987,6.5329 8.65053,15.5309 12.27611,26.7103 0.0865,0.2656 0.17234,0.5323 0.25753,0.7999 3.67704,11.551 5.0434,21.5481 5.11938,29.584 0.0728,7.6948 -0.98022,12.3804 -1.49909,12.3362 z m 70.24528,-95.5558 c -0.20239,0.4798 -4.64188,-1.07215 -11.95425,-2.66451 -7.77104,-1.69224 -17.11219,-2.97911 -29.05876,-3.07143 -0.27371,-0.002 -0.54679,-0.004 -0.81919,-0.004 -11.55928,-0.0225 -21.09341,1.06632 -28.66714,2.23885 -7.28457,1.12777 -11.7763,2.10729 -11.92341,1.61425 -0.1471,-0.49305 4.1088,-2.38042 11.39876,-4.20459 7.47691,-1.87096 17.44388,-3.42785 29.19646,-3.42136 0.27939,-1.7e-4 0.55951,5.8e-4 0.84034,0.002 12.12189,0.0724 22.052,1.86219 29.71802,4.27315 7.34065,2.30862 11.47156,4.75804 11.26917,5.23784 z m -69.17197,-96.33562 c 0.3938,0.34075 -2.45406,4.08338 -6.22814,10.54579 -4.0108,6.86777 -8.12126,15.35407 -11.90075,26.6874 -0.0866,0.25967 -0.17238,0.51892 -0.25737,0.77773 -3.59336,10.98659 -5.5041,20.39053 -6.72936,27.95591 -1.17849,7.27654 -1.63492,11.85112 -2.14929,11.83867 -0.51438,-0.0125 -0.99423,-4.64329 -0.4764,-12.14016 0.53111,-7.68912 2.13038,-17.64937 5.7683,-28.82474 0.0862,-0.26576 0.17344,-0.53194 0.26182,-0.79851 3.8147,-11.50624 8.58549,-20.39725 13.24738,-26.94305 4.46401,-6.26797 8.07002,-9.4398 8.46381,-9.09904 z"
         id="path3042"
         inkscape:original-d="m 794.37268,940.54399 c 14.26831,23.62526 42.16276,41.73597 65.5721,49.9737"
         sodipodi:nodetypes="cc"
         inkscape:path-effect="#path-effect3044" />
    </g>
  </g>
  <g
     inkscape:groupmode="layer"
     id="layer7"
     inkscape:label="yellow fills"
     transform="translate(11.25427,7.537683)"
     sodipodi:insensitive="true">
    <path
       style="fill:#f4f2ba;fill-opacity:1;stroke:none;stroke-width:1px;stroke-linecap:butt;stroke-linejoin:miter;stroke-opacity:1"
       d="m 113.25388,115.43059 -0.64589,-11.72945 c -0.33038,-6.416155 -4.64302,-10.243842 -9.77026,-13.542038 -2.13316,3.756629 -1.79636,7.513259 -0.18178,11.269888 l 4.45343,12.49685 z m -0.54257,-2.88088 -11.35496,-3.01032 c -6.204218,-1.66849 -11.177244,1.25025 -15.898419,5.10735 2.913584,3.18962 6.590429,4.03016 10.662128,3.65547 l 13.261391,-0.37373 z m -2.90754,-0.37423 -6.37186,9.86897 c -3.504041,5.38497 -2.2649,11.01654 -0.0555,16.69855 3.93386,-1.78533 5.86947,-5.02248 6.77134,-9.01068 l 3.74256,-12.72782 z m -1.25439,2.6496 7.41693,9.10968 c 4.0386,4.99658 9.77746,5.55834 15.86412,5.21292 -0.48233,-4.29302 -2.9629,-7.13423 -6.47721,-9.22438 l -10.94837,-7.4925 z m 2.13228,2.01176 10.95578,-4.23887 c 6.00003,-2.29691 8.3077,-7.5813 9.86007,-13.476793 -4.23195,-0.867893 -7.70064,0.613285 -10.77448,3.309703 l -10.50902,8.0972 z"
       id="path14623"
       sodipodi:nodetypes="cccccc"
       inkscape:path-effect="#path-effect17291"
       inkscape:original-d="m 113.25388,115.43059 -0.64589,-11.72945 c -0.33038,-6.416155 -4.64302,-10.243842 -9.77026,-13.542038 -2.13316,3.756629 -1.79636,7.513259 -0.18178,11.269888 l 4.45343,12.49685 z" />
  </g>
  <g
     inkscape:groupmode="layer"
     id="layer3"
     inkscape:label="yellow lines"
     style="display:inline"
     transform="translate(11.25427,7.537683)"
     sodipodi:insensitive="true">
    <path
       style="fill:#d9c77c;fill-opacity:1;stroke:none;stroke-width:1px;stroke-linecap:butt;stroke-linejoin:miter;stroke-opacity:1"
       d="m 103.17188,88.822266 c -0.0357,-0.0039 -0.0771,-0.0037 -0.125,0.002 -0.31911,0.03779 -0.9079,0.288441 -1.75,0.771484 -0.38561,0.524934 -0.58661,0.917296 -0.65626,1.144531 -0.0232,0.07575 -0.0315,0.134198 -0.0273,0.171875 -0.20041,0.590755 -0.34045,1.164628 -0.44531,1.705079 -0.3584,1.825495 -0.430594,3.610445 -0.32422,5.271484 0.31421,4.825948 2.1414,8.600898 3.75,10.908208 0.23162,0.33221 0.45621,0.63052 0.67578,0.9082 -0.11602,-0.054 -0.25226,-0.10261 -0.41797,-0.1836 -1.25117,-0.52649 -2.85727,-0.97031 -4.863279,-1.10742 -2.272057,-0.1495 -4.848555,0.15387 -7.521484,1.10742 -1.752455,0.61781 -3.554164,1.50062 -5.242188,2.73243 -0.485195,0.34754 -1.011152,0.77384 -1.52539,1.3164 -0.09391,0.0898 -0.210923,0.22367 -0.341797,0.40625 -0.06595,0.092 -0.134641,0.19568 -0.207031,0.3125 -0.31445,-0.12124 -0.361654,0.5989 -0.04297,2.11914 0.380084,0.52895 0.690168,0.84208 0.884766,0.97852 0.06486,0.0455 0.11719,0.0724 0.154296,0.0801 0.499912,0.37315 1.002782,0.68248 1.484375,0.94922 1.6254,0.90496 3.299497,1.52537 4.91211,1.9375 4.68684,1.19247 8.841751,0.62155 11.533201,-0.19532 0.38753,-0.11762 0.74033,-0.24026 1.07227,-0.36328 -0.0876,0.094 -0.17701,0.2094 -0.30274,0.3418 -0.88736,1.02724 -1.8044,2.41579 -2.55468,4.28125 -0.8443,2.11465 -1.354347,4.65932 -1.27344,7.49609 0.046,1.8576 0.33057,3.84598 0.98047,5.83203 0.1806,0.56885 0.4222,1.2007 0.77929,1.85743 0.0564,0.11705 0.14805,0.26832 0.28125,0.44921 0.0671,0.0912 0.14369,0.18998 0.23243,0.29493 -0.21248,0.26159 0.45958,0.52861 2.0039,0.69531 0.62051,-0.19803 1.01323,-0.39615 1.20313,-0.53906 0.0633,-0.0476 0.10423,-0.0901 0.12304,-0.12305 0.50937,-0.36013 0.96077,-0.74354 1.36329,-1.11914 1.36293,-1.2662 2.46909,-2.66593 3.35937,-4.07227 2.58242,-4.08895 3.32409,-8.21714 3.37891,-11.02929 0.008,-0.40491 7.4e-4,-0.77911 -0.0137,-1.13282 0.0627,0.11285 0.14433,0.23426 0.23047,0.39454 0.70276,1.16136 1.7409,2.46388 3.28321,3.7539 1.75025,1.45644 4.01339,2.72573 6.73632,3.52539 1.78091,0.53026 3.75798,0.87546 5.84766,0.8711 0.59681,0.004 1.27288,-0.0313 2.00781,-0.16797 0.12874,-0.0174 0.30048,-0.0581 0.51367,-0.12891 0.10745,-0.0357 0.22434,-0.0789 0.35157,-0.13086 0.18313,0.28292 0.64549,-0.27223 1.28125,-1.68945 0.003,-0.65133 -0.0634,-1.08579 -0.14063,-1.31055 -0.0257,-0.0749 -0.0526,-0.12624 -0.0781,-0.1543 -0.18511,-0.59572 -0.40975,-1.14371 -0.64258,-1.64257 -0.78305,-1.68752 -1.77355,-3.1738 -2.83594,-4.45508 -3.09081,-3.71959 -6.78773,-5.69801 -9.44531,-6.61914 -0.38265,-0.13263 -0.74118,-0.2423 -1.08203,-0.33789 0.12638,-0.0247 0.26674,-0.0648 0.44726,-0.0977 1.32169,-0.30948 2.88051,-0.89471 4.58399,-1.96289 1.92601,-1.21453 3.83359,-2.97386 5.43554,-5.31641 1.05464,-1.52988 1.99317,-3.30422 2.63477,-5.29297 0.18825,-0.56636 0.36382,-1.21973 0.46094,-1.96093 0.0232,-0.12782 0.0385,-0.30466 0.0371,-0.529299 -7.3e-4,-0.11321 -0.006,-0.237941 -0.0156,-0.375 0.32566,-0.08674 -0.0595,-0.697648 -1.21093,-1.740235 -0.6184,-0.204517 -1.05339,-0.275484 -1.29102,-0.271484 -0.0792,0.0013 -0.13732,0.01178 -0.17188,0.02734 -0.62377,-0.008 -1.21336,0.03623 -1.75976,0.103515 -1.8469,0.223255 -3.56641,0.705856 -5.11328,1.320313 -4.49265,1.790126 -7.51756,4.694636 -9.21485,6.937496 -0.24438,0.32294 -0.45805,0.6292 -0.65429,0.92383 0.0155,-0.12691 0.0194,-0.2718 0.0449,-0.45508 0.11409,-1.35263 0.0383,-3.01465 -0.45117,-4.96484 -0.55992,-2.207055 -1.64409,-4.565058 -3.37696,-6.8125 -1.1291,-1.475772 -2.5256,-2.917823 -4.21875,-4.142578 -0.48046,-0.354051 -1.04774,-0.721559 -1.72265,-1.042969 -0.11439,-0.06157 -0.2781,-0.131171 -0.49219,-0.199219 -0.10789,-0.03429 -0.22786,-0.06881 -0.36133,-0.101562 0.005,-0.09465 -0.0472,-0.148428 -0.15429,-0.160156 z m -0.58204,3.882812 c 0.0443,0.01954 0.0914,0.04369 0.13672,0.06641 -0.14048,0.04592 -0.21936,0.04761 -0.21875,-0.0078 z m 1.23047,0.75586 c 1.33709,0.946055 2.51211,2.081002 3.5293,3.253906 1.56638,1.820603 2.65852,3.675906 3.37305,5.455076 1.73814,4.28065 1.26802,7.65273 1.84375,7.76563 0.0424,0.008 0.0915,-0.008 0.18359,-0.0312 0.4021,0.0834 1.51202,-1.02861 3.41211,-2.61133 2.00348,-1.66884 4.95767,-3.84435 8.83203,-5.10547 1.33258,-0.43637 2.75744,-0.78278 4.21875,-0.93359 -0.48657,1.56399 -1.20274,3.03343 -2.00391,4.36328 -1.24746,2.05231 -2.67324,3.66323 -4.14453,4.89258 -3.53402,2.97587 -6.88694,3.57186 -6.8164,4.15429 0.005,0.0429 0.0361,0.0835 0.0859,0.16406 0.0449,0.4082 1.44665,1.1195 3.53907,2.4375 2.20627,1.38973 5.18734,3.52724 7.58398,6.82227 0.8268,1.13251 1.59641,2.38142 2.19141,3.72461 -1.6378,0.0205 -3.2572,-0.20758 -4.76953,-0.55859 -2.33735,-0.55221 -4.30976,-1.4103 -5.9336,-2.42969 -3.92229,-2.44146 -5.52451,-5.44629 -6.05664,-5.19922 -0.0392,0.0182 -0.0679,0.0606 -0.13672,0.14062 -0.36965,0.18808 -0.61636,1.73192 -1.21875,4.11133 -0.63993,2.52774 -1.75137,6.02276 -4.14453,9.32032 -0.82159,1.1363 -1.7697,2.25538 -2.86328,3.23632 -0.52565,-1.55129 -0.80985,-3.16219 -0.94336,-4.70898 -0.1971,-2.39359 0.009,-4.53321 0.47656,-6.39258 1.10991,-4.48477 3.47168,-6.93941 3.07227,-7.36914 -0.0294,-0.0317 -0.0768,-0.045 -0.17578,-0.0859 -0.29356,-0.29315 -1.83659,-0.051 -4.28516,0.11133 -2.60177,0.17251 -6.270792,0.19648 -10.146482,-1.06055 -1.334572,-0.43024 -2.690069,-0.98768 -3.960938,-1.72461 1.312934,-0.97928 2.755721,-1.7466 4.185547,-2.35156 2.215534,-0.92711 4.315625,-1.39172 6.228515,-1.52148 4.608258,-0.33029 7.671758,1.15719 7.957028,0.64453 0.021,-0.0378 0.019,-0.0891 0.0254,-0.18359 0.20358,-0.35665 -0.50963,-1.75461 -1.42773,-4.05079 -0.96805,-2.42112 -2.1248,-5.90407 -2.12695,-9.978511 -0.003,-1.402205 0.10787,-2.86439 0.41601,-4.300781 z m 25.73242,6.388671 c -0.005,0.04813 -0.0139,0.100272 -0.0215,0.150391 -0.0871,-0.119414 -0.11345,-0.192445 -0.0606,-0.208984 z M 87.568359,116.03125 c 2.6e-4,0.14779 -0.0217,0.22279 -0.107421,0.10937 0.03226,-0.0361 0.07181,-0.0733 0.107421,-0.10937 z m 43.521481,11.66992 c -0.0473,0.0102 -0.10037,0.0171 -0.15039,0.0254 0.065,-0.0898 0.11556,-0.13873 0.15039,-0.13867 z m -26.08593,9.9336 c 0.14064,0.0454 0.20495,0.0883 0.0723,0.13476 -0.0243,-0.0418 -0.049,-0.0898 -0.0723,-0.13476 z"
       id="path17643"
       inkscape:original-d="m 106.93324,111.83818 c -7.925504,-10.06666 -4.81331,-20.337843 -4.22108,-21.004714 0.54226,-0.61059 12.25019,6.896011 9.85958,19.087764"
       sodipodi:nodetypes="csc"
       inkscape:path-effect="#path-effect17645;#path-effect19786" />
  </g>
  <g
     inkscape:groupmode="layer"
     id="layer8"
     inkscape:label="circular"
     transform="translate(15.14141,10.392167)"
     style="display:none">
    <path
       style="fill:none;stroke:#000000;stroke-width:1px;stroke-linecap:butt;stroke-linejoin:miter;stroke-opacity:1"
       d="m 228.64642,111.75169 a 121.64391,121.64391 0 0 1 -243.28783,0 121.64391,121.64391 0 0 1 243.28783,0 z"
       id="path18150"
       inkscape:path-effect="#path-effect18152"
       inkscape:original-d="M 156.72373,0.73349 16.78261,30.1575 132.03211,230.7927" />
  </g>
</svg>
